<mxfile host="app.diagrams.net" agent="Mozilla/5.0 (X11; Linux x86_64; rv:132.0) Gecko/20100101 Firefox/132.0" version="25.0.3">
  <diagram name="Page-1" id="UW4n-LdPu-PrkrvwW0DF">
    <mxGraphModel dx="6740" dy="3783" grid="1" gridSize="10" guides="1" tooltips="1" connect="1" arrows="1" fold="1" page="0" pageScale="1" pageWidth="850" pageHeight="1100" math="0" shadow="0">
      <root>
        <mxCell id="0" />
        <mxCell id="1" parent="0" />
        <mxCell id="Ct-b7WR9rQ5AIG0DDqBD-3" value="" style="edgeStyle=orthogonalEdgeStyle;rounded=0;orthogonalLoop=1;jettySize=auto;html=1;" parent="1" source="Ct-b7WR9rQ5AIG0DDqBD-1" target="Ct-b7WR9rQ5AIG0DDqBD-2" edge="1">
          <mxGeometry relative="1" as="geometry" />
        </mxCell>
        <mxCell id="Ct-b7WR9rQ5AIG0DDqBD-1" value="BAŞLA" style="ellipse;whiteSpace=wrap;html=1;" parent="1" vertex="1">
          <mxGeometry x="-780" y="-640" width="120" height="80" as="geometry" />
        </mxCell>
        <mxCell id="Ct-b7WR9rQ5AIG0DDqBD-15" style="edgeStyle=orthogonalEdgeStyle;rounded=0;orthogonalLoop=1;jettySize=auto;html=1;exitX=0.5;exitY=1;exitDx=0;exitDy=0;entryX=0.5;entryY=0;entryDx=0;entryDy=0;" parent="1" source="Ct-b7WR9rQ5AIG0DDqBD-2" target="Ct-b7WR9rQ5AIG0DDqBD-14" edge="1">
          <mxGeometry relative="1" as="geometry" />
        </mxCell>
        <mxCell id="Ct-b7WR9rQ5AIG0DDqBD-2" value="&lt;div&gt;satirTampon[256]&lt;/div&gt;&lt;div&gt;*satirDizi[100]&lt;/div&gt;&lt;div&gt;satirSayac = 0&lt;br&gt;&lt;/div&gt;" style="whiteSpace=wrap;html=1;" parent="1" vertex="1">
          <mxGeometry x="-780" y="-520" width="120" height="60" as="geometry" />
        </mxCell>
        <mxCell id="Ct-b7WR9rQ5AIG0DDqBD-9" value="" style="edgeStyle=orthogonalEdgeStyle;rounded=0;orthogonalLoop=1;jettySize=auto;html=1;exitX=1;exitY=0.5;exitDx=0;exitDy=0;" parent="1" source="Ct-b7WR9rQ5AIG0DDqBD-6" target="Ct-b7WR9rQ5AIG0DDqBD-8" edge="1">
          <mxGeometry relative="1" as="geometry" />
        </mxCell>
        <mxCell id="Ct-b7WR9rQ5AIG0DDqBD-10" value="Evet" style="edgeLabel;html=1;align=center;verticalAlign=middle;resizable=0;points=[];" parent="Ct-b7WR9rQ5AIG0DDqBD-9" vertex="1" connectable="0">
          <mxGeometry x="-0.4427" y="-1" relative="1" as="geometry">
            <mxPoint x="-1" y="-11" as="offset" />
          </mxGeometry>
        </mxCell>
        <mxCell id="Ct-b7WR9rQ5AIG0DDqBD-12" value="" style="edgeStyle=orthogonalEdgeStyle;rounded=0;orthogonalLoop=1;jettySize=auto;html=1;entryX=0.5;entryY=0;entryDx=0;entryDy=0;" parent="1" source="Ct-b7WR9rQ5AIG0DDqBD-6" target="Ct-b7WR9rQ5AIG0DDqBD-39" edge="1">
          <mxGeometry relative="1" as="geometry">
            <mxPoint x="-720" y="-200" as="targetPoint" />
          </mxGeometry>
        </mxCell>
        <mxCell id="Ct-b7WR9rQ5AIG0DDqBD-13" value="Hayır" style="edgeLabel;html=1;align=center;verticalAlign=middle;resizable=0;points=[];" parent="Ct-b7WR9rQ5AIG0DDqBD-12" vertex="1" connectable="0">
          <mxGeometry x="-0.3167" relative="1" as="geometry">
            <mxPoint as="offset" />
          </mxGeometry>
        </mxCell>
        <mxCell id="Ct-b7WR9rQ5AIG0DDqBD-6" value="&lt;div&gt;Dosya&lt;/div&gt;&lt;div&gt;açılamadı&lt;/div&gt;&lt;div&gt;mı?&lt;br&gt;&lt;/div&gt;" style="rhombus;whiteSpace=wrap;html=1;" parent="1" vertex="1">
          <mxGeometry x="-760" y="-320" width="80" height="80" as="geometry" />
        </mxCell>
        <mxCell id="Ct-b7WR9rQ5AIG0DDqBD-107" style="edgeStyle=orthogonalEdgeStyle;rounded=0;orthogonalLoop=1;jettySize=auto;html=1;exitX=1;exitY=0.5;exitDx=0;exitDy=0;" parent="1" source="Ct-b7WR9rQ5AIG0DDqBD-8" edge="1">
          <mxGeometry relative="1" as="geometry">
            <mxPoint x="-500" y="820" as="targetPoint" />
          </mxGeometry>
        </mxCell>
        <mxCell id="Ct-b7WR9rQ5AIG0DDqBD-8" value="&lt;div&gt;&quot;Dosya açılamadı. Dosya dizinini kontrol ediniz.&quot;&lt;/div&gt;&lt;div&gt;yazdır&lt;br&gt;&lt;/div&gt;" style="shape=document;whiteSpace=wrap;html=1;boundedLbl=1;" parent="1" vertex="1">
          <mxGeometry x="-640" y="-320" width="120" height="80" as="geometry" />
        </mxCell>
        <mxCell id="Ct-b7WR9rQ5AIG0DDqBD-16" style="edgeStyle=orthogonalEdgeStyle;rounded=0;orthogonalLoop=1;jettySize=auto;html=1;exitX=0.5;exitY=1;exitDx=0;exitDy=0;entryX=0.5;entryY=0;entryDx=0;entryDy=0;" parent="1" source="Ct-b7WR9rQ5AIG0DDqBD-14" target="Ct-b7WR9rQ5AIG0DDqBD-6" edge="1">
          <mxGeometry relative="1" as="geometry" />
        </mxCell>
        <mxCell id="Ct-b7WR9rQ5AIG0DDqBD-14" value="&lt;div&gt;Dosyayı aç&lt;/div&gt;&lt;div&gt;(&quot;giris.txt&quot;)&lt;br&gt;&lt;/div&gt;" style="shape=parallelogram;perimeter=parallelogramPerimeter;whiteSpace=wrap;html=1;fixedSize=1;" parent="1" vertex="1">
          <mxGeometry x="-780" y="-420" width="120" height="60" as="geometry" />
        </mxCell>
        <mxCell id="Ct-b7WR9rQ5AIG0DDqBD-23" value="" style="edgeStyle=orthogonalEdgeStyle;rounded=0;orthogonalLoop=1;jettySize=auto;html=1;" parent="1" source="Ct-b7WR9rQ5AIG0DDqBD-20" target="Ct-b7WR9rQ5AIG0DDqBD-22" edge="1">
          <mxGeometry relative="1" as="geometry" />
        </mxCell>
        <mxCell id="Ct-b7WR9rQ5AIG0DDqBD-20" value="satirUzunluk &amp;lt;= strlen(satirTampon)" style="whiteSpace=wrap;html=1;rounded=0;" parent="1" vertex="1">
          <mxGeometry x="-780" y="30" width="120" height="60" as="geometry" />
        </mxCell>
        <mxCell id="Ct-b7WR9rQ5AIG0DDqBD-25" value="" style="edgeStyle=orthogonalEdgeStyle;rounded=0;orthogonalLoop=1;jettySize=auto;html=1;" parent="1" source="Ct-b7WR9rQ5AIG0DDqBD-22" target="Ct-b7WR9rQ5AIG0DDqBD-24" edge="1">
          <mxGeometry relative="1" as="geometry" />
        </mxCell>
        <mxCell id="Ct-b7WR9rQ5AIG0DDqBD-26" value="Evet" style="edgeLabel;html=1;align=center;verticalAlign=middle;resizable=0;points=[];" parent="Ct-b7WR9rQ5AIG0DDqBD-25" vertex="1" connectable="0">
          <mxGeometry x="-0.3167" y="1" relative="1" as="geometry">
            <mxPoint as="offset" />
          </mxGeometry>
        </mxCell>
        <mxCell id="Ct-b7WR9rQ5AIG0DDqBD-47" style="edgeStyle=orthogonalEdgeStyle;rounded=0;orthogonalLoop=1;jettySize=auto;html=1;exitX=1;exitY=0.5;exitDx=0;exitDy=0;entryX=1;entryY=0.5;entryDx=0;entryDy=0;" parent="1" source="Ct-b7WR9rQ5AIG0DDqBD-22" target="Ct-b7WR9rQ5AIG0DDqBD-29" edge="1">
          <mxGeometry relative="1" as="geometry" />
        </mxCell>
        <mxCell id="Ct-b7WR9rQ5AIG0DDqBD-22" value="&lt;div align=&quot;center&quot;&gt;satirTampon&lt;/div&gt;&lt;div align=&quot;center&quot;&gt;[satirUzunluk - 1] = &#39;\n&#39;&lt;br&gt;&lt;/div&gt;" style="rhombus;whiteSpace=wrap;html=1;rounded=0;align=center;" parent="1" vertex="1">
          <mxGeometry x="-777.5" y="130" width="115" height="110" as="geometry" />
        </mxCell>
        <mxCell id="Ct-b7WR9rQ5AIG0DDqBD-30" value="" style="edgeStyle=orthogonalEdgeStyle;rounded=0;orthogonalLoop=1;jettySize=auto;html=1;" parent="1" source="Ct-b7WR9rQ5AIG0DDqBD-24" target="Ct-b7WR9rQ5AIG0DDqBD-29" edge="1">
          <mxGeometry relative="1" as="geometry" />
        </mxCell>
        <mxCell id="Ct-b7WR9rQ5AIG0DDqBD-24" value="&lt;div&gt;satirTampon&lt;/div&gt;&lt;div&gt;[satirUzunluk - 1]&lt;/div&gt;&lt;div&gt;&amp;lt;= &#39;\0&#39;&lt;/div&gt;" style="whiteSpace=wrap;html=1;rounded=0;" parent="1" vertex="1">
          <mxGeometry x="-780" y="280" width="120" height="60" as="geometry" />
        </mxCell>
        <mxCell id="Ct-b7WR9rQ5AIG0DDqBD-38" style="edgeStyle=orthogonalEdgeStyle;rounded=0;orthogonalLoop=1;jettySize=auto;html=1;exitX=0.5;exitY=1;exitDx=0;exitDy=0;entryX=0.5;entryY=0;entryDx=0;entryDy=0;" parent="1" source="Ct-b7WR9rQ5AIG0DDqBD-29" target="Ct-b7WR9rQ5AIG0DDqBD-35" edge="1">
          <mxGeometry relative="1" as="geometry" />
        </mxCell>
        <mxCell id="Ct-b7WR9rQ5AIG0DDqBD-29" value="&lt;div&gt;satirDizi[satirSayac]&lt;/div&gt;&lt;div&gt;&amp;lt;= strdup(satirTampon)&lt;br&gt;&lt;/div&gt;" style="whiteSpace=wrap;html=1;rounded=0;" parent="1" vertex="1">
          <mxGeometry x="-780" y="380" width="120" height="60" as="geometry" />
        </mxCell>
        <mxCell id="Ct-b7WR9rQ5AIG0DDqBD-50" value="" style="edgeStyle=orthogonalEdgeStyle;rounded=0;orthogonalLoop=1;jettySize=auto;html=1;" parent="1" source="Ct-b7WR9rQ5AIG0DDqBD-35" edge="1">
          <mxGeometry relative="1" as="geometry">
            <mxPoint x="-720" y="579.9999999999998" as="targetPoint" />
          </mxGeometry>
        </mxCell>
        <mxCell id="Ct-b7WR9rQ5AIG0DDqBD-35" value="satirSayac &amp;lt;= satirSayac + 1" style="whiteSpace=wrap;html=1;rounded=0;" parent="1" vertex="1">
          <mxGeometry x="-780" y="480" width="120" height="60" as="geometry" />
        </mxCell>
        <mxCell id="Ct-b7WR9rQ5AIG0DDqBD-43" value="" style="edgeStyle=orthogonalEdgeStyle;rounded=0;orthogonalLoop=1;jettySize=auto;html=1;" parent="1" source="Ct-b7WR9rQ5AIG0DDqBD-39" target="Ct-b7WR9rQ5AIG0DDqBD-42" edge="1">
          <mxGeometry relative="1" as="geometry" />
        </mxCell>
        <mxCell id="Ct-b7WR9rQ5AIG0DDqBD-45" value="&lt;div&gt;Hayır&lt;/div&gt;" style="edgeLabel;html=1;align=center;verticalAlign=middle;resizable=0;points=[];" parent="Ct-b7WR9rQ5AIG0DDqBD-43" vertex="1" connectable="0">
          <mxGeometry x="-0.25" y="-2" relative="1" as="geometry">
            <mxPoint as="offset" />
          </mxGeometry>
        </mxCell>
        <mxCell id="Ct-b7WR9rQ5AIG0DDqBD-46" style="edgeStyle=orthogonalEdgeStyle;rounded=0;orthogonalLoop=1;jettySize=auto;html=1;exitX=0;exitY=0.5;exitDx=0;exitDy=0;entryX=0;entryY=0.5;entryDx=0;entryDy=0;" parent="1" source="Ct-b7WR9rQ5AIG0DDqBD-39" target="Ct-b7WR9rQ5AIG0DDqBD-20" edge="1">
          <mxGeometry relative="1" as="geometry">
            <Array as="points">
              <mxPoint x="-800" y="-140" />
              <mxPoint x="-800" y="60" />
            </Array>
          </mxGeometry>
        </mxCell>
        <mxCell id="jQna4Uqf_XnUCLtKuqwj-2" value="Evet" style="edgeLabel;html=1;align=center;verticalAlign=middle;resizable=0;points=[];" vertex="1" connectable="0" parent="Ct-b7WR9rQ5AIG0DDqBD-46">
          <mxGeometry x="-0.8881" y="-1" relative="1" as="geometry">
            <mxPoint x="2" y="-9" as="offset" />
          </mxGeometry>
        </mxCell>
        <mxCell id="Ct-b7WR9rQ5AIG0DDqBD-39" value="&lt;div&gt;&lt;font style=&quot;font-size: 8px;&quot;&gt;fgets(satirTampon, sizeof(satirTampon), girisDosya) NULL mı?&lt;br&gt;&lt;/font&gt;&lt;/div&gt;" style="rhombus;whiteSpace=wrap;html=1;" parent="1" vertex="1">
          <mxGeometry x="-780" y="-200" width="120" height="120" as="geometry" />
        </mxCell>
        <mxCell id="Ct-b7WR9rQ5AIG0DDqBD-44" style="edgeStyle=orthogonalEdgeStyle;rounded=0;orthogonalLoop=1;jettySize=auto;html=1;exitX=1;exitY=0.5;exitDx=0;exitDy=0;entryX=1;entryY=0.5;entryDx=0;entryDy=0;" parent="1" source="Ct-b7WR9rQ5AIG0DDqBD-42" target="Ct-b7WR9rQ5AIG0DDqBD-39" edge="1">
          <mxGeometry relative="1" as="geometry">
            <Array as="points">
              <mxPoint x="-640" y="-10" />
              <mxPoint x="-640" y="-140" />
            </Array>
          </mxGeometry>
        </mxCell>
        <mxCell id="Ct-b7WR9rQ5AIG0DDqBD-42" value="Satırı işle" style="shape=parallelogram;perimeter=parallelogramPerimeter;whiteSpace=wrap;html=1;fixedSize=1;" parent="1" vertex="1">
          <mxGeometry x="-780" y="-40" width="120" height="60" as="geometry" />
        </mxCell>
        <mxCell id="Ct-b7WR9rQ5AIG0DDqBD-48" value="Hayır" style="text;html=1;align=center;verticalAlign=middle;resizable=0;points=[];autosize=1;strokeColor=none;fillColor=none;" parent="1" vertex="1">
          <mxGeometry x="-675" y="158" width="50" height="30" as="geometry" />
        </mxCell>
        <mxCell id="Ct-b7WR9rQ5AIG0DDqBD-52" value="" style="edgeStyle=orthogonalEdgeStyle;rounded=0;orthogonalLoop=1;jettySize=auto;html=1;" parent="1" target="Ct-b7WR9rQ5AIG0DDqBD-51" edge="1">
          <mxGeometry relative="1" as="geometry">
            <mxPoint x="-720" y="640" as="sourcePoint" />
          </mxGeometry>
        </mxCell>
        <mxCell id="Ct-b7WR9rQ5AIG0DDqBD-59" style="edgeStyle=orthogonalEdgeStyle;rounded=0;orthogonalLoop=1;jettySize=auto;html=1;exitX=0.5;exitY=1;exitDx=0;exitDy=0;entryX=0.5;entryY=0;entryDx=0;entryDy=0;" parent="1" source="Ct-b7WR9rQ5AIG0DDqBD-51" target="Ct-b7WR9rQ5AIG0DDqBD-57" edge="1">
          <mxGeometry relative="1" as="geometry" />
        </mxCell>
        <mxCell id="Ct-b7WR9rQ5AIG0DDqBD-51" value="&lt;div&gt;Dosyayı aç&lt;/div&gt;&lt;div&gt;&quot;casus.txt&quot;&lt;br&gt;&lt;/div&gt;" style="shape=parallelogram;perimeter=parallelogramPerimeter;whiteSpace=wrap;html=1;fixedSize=1;rounded=0;" parent="1" vertex="1">
          <mxGeometry x="-780" y="680" width="120" height="60" as="geometry" />
        </mxCell>
        <mxCell id="Ct-b7WR9rQ5AIG0DDqBD-53" value="" style="edgeStyle=orthogonalEdgeStyle;rounded=0;orthogonalLoop=1;jettySize=auto;html=1;exitX=1;exitY=0.5;exitDx=0;exitDy=0;" parent="1" source="Ct-b7WR9rQ5AIG0DDqBD-57" target="Ct-b7WR9rQ5AIG0DDqBD-58" edge="1">
          <mxGeometry relative="1" as="geometry" />
        </mxCell>
        <mxCell id="Ct-b7WR9rQ5AIG0DDqBD-54" value="Evet" style="edgeLabel;html=1;align=center;verticalAlign=middle;resizable=0;points=[];" parent="Ct-b7WR9rQ5AIG0DDqBD-53" vertex="1" connectable="0">
          <mxGeometry x="-0.4427" y="-1" relative="1" as="geometry">
            <mxPoint x="-1" y="-11" as="offset" />
          </mxGeometry>
        </mxCell>
        <mxCell id="Ct-b7WR9rQ5AIG0DDqBD-55" value="" style="edgeStyle=orthogonalEdgeStyle;rounded=0;orthogonalLoop=1;jettySize=auto;html=1;entryX=0.5;entryY=0.034;entryDx=0;entryDy=0;entryPerimeter=0;" parent="1" source="Ct-b7WR9rQ5AIG0DDqBD-57" target="Ct-b7WR9rQ5AIG0DDqBD-61" edge="1">
          <mxGeometry relative="1" as="geometry">
            <mxPoint x="-719" y="902" as="targetPoint" />
            <Array as="points" />
          </mxGeometry>
        </mxCell>
        <mxCell id="Ct-b7WR9rQ5AIG0DDqBD-56" value="Hayır" style="edgeLabel;html=1;align=center;verticalAlign=middle;resizable=0;points=[];" parent="Ct-b7WR9rQ5AIG0DDqBD-55" vertex="1" connectable="0">
          <mxGeometry x="-0.3167" relative="1" as="geometry">
            <mxPoint as="offset" />
          </mxGeometry>
        </mxCell>
        <mxCell id="Ct-b7WR9rQ5AIG0DDqBD-57" value="&lt;div&gt;Dosya&lt;/div&gt;&lt;div&gt;açılamadı&lt;/div&gt;&lt;div&gt;mı?&lt;br&gt;&lt;/div&gt;" style="rhombus;whiteSpace=wrap;html=1;" parent="1" vertex="1">
          <mxGeometry x="-760" y="780" width="80" height="80" as="geometry" />
        </mxCell>
        <mxCell id="Ct-b7WR9rQ5AIG0DDqBD-106" style="edgeStyle=orthogonalEdgeStyle;rounded=0;orthogonalLoop=1;jettySize=auto;html=1;exitX=1;exitY=0.5;exitDx=0;exitDy=0;entryX=1;entryY=0.5;entryDx=0;entryDy=0;" parent="1" source="Ct-b7WR9rQ5AIG0DDqBD-58" target="Ct-b7WR9rQ5AIG0DDqBD-104" edge="1">
          <mxGeometry relative="1" as="geometry">
            <mxPoint x="-540" y="1820" as="targetPoint" />
          </mxGeometry>
        </mxCell>
        <mxCell id="Ct-b7WR9rQ5AIG0DDqBD-58" value="&lt;div&gt;&quot;Dosya açılamadı. Dosya dizinini kontrol ediniz.&quot;&lt;/div&gt;&lt;div&gt;yazdır&lt;br&gt;&lt;/div&gt;" style="shape=document;whiteSpace=wrap;html=1;boundedLbl=1;" parent="1" vertex="1">
          <mxGeometry x="-640" y="780" width="120" height="80" as="geometry" />
        </mxCell>
        <mxCell id="Ct-b7WR9rQ5AIG0DDqBD-63" value="" style="edgeStyle=orthogonalEdgeStyle;rounded=0;orthogonalLoop=1;jettySize=auto;html=1;" parent="1" source="Ct-b7WR9rQ5AIG0DDqBD-61" target="Ct-b7WR9rQ5AIG0DDqBD-62" edge="1">
          <mxGeometry relative="1" as="geometry" />
        </mxCell>
        <mxCell id="Ct-b7WR9rQ5AIG0DDqBD-61" value="i = 0" style="rounded=0;whiteSpace=wrap;html=1;" parent="1" vertex="1">
          <mxGeometry x="-777.5" y="900" width="120" height="60" as="geometry" />
        </mxCell>
        <mxCell id="Ct-b7WR9rQ5AIG0DDqBD-65" value="" style="edgeStyle=orthogonalEdgeStyle;rounded=0;orthogonalLoop=1;jettySize=auto;html=1;" parent="1" source="Ct-b7WR9rQ5AIG0DDqBD-62" target="Ct-b7WR9rQ5AIG0DDqBD-64" edge="1">
          <mxGeometry relative="1" as="geometry" />
        </mxCell>
        <mxCell id="Ct-b7WR9rQ5AIG0DDqBD-68" value="Evet" style="edgeLabel;html=1;align=center;verticalAlign=middle;resizable=0;points=[];" parent="Ct-b7WR9rQ5AIG0DDqBD-65" vertex="1" connectable="0">
          <mxGeometry x="-0.1929" relative="1" as="geometry">
            <mxPoint as="offset" />
          </mxGeometry>
        </mxCell>
        <mxCell id="Ct-b7WR9rQ5AIG0DDqBD-62" value="&lt;font style=&quot;font-size: 11px;&quot;&gt;i &amp;lt; satirSayac&lt;br&gt;&lt;/font&gt;" style="rhombus;whiteSpace=wrap;html=1;rounded=0;" parent="1" vertex="1">
          <mxGeometry x="-757.5" y="1000" width="80" height="80" as="geometry" />
        </mxCell>
        <mxCell id="Ct-b7WR9rQ5AIG0DDqBD-67" value="" style="edgeStyle=orthogonalEdgeStyle;rounded=0;orthogonalLoop=1;jettySize=auto;html=1;" parent="1" source="Ct-b7WR9rQ5AIG0DDqBD-64" target="Ct-b7WR9rQ5AIG0DDqBD-66" edge="1">
          <mxGeometry relative="1" as="geometry" />
        </mxCell>
        <mxCell id="Ct-b7WR9rQ5AIG0DDqBD-64" value="i &amp;lt;= i + 1&lt;br&gt;&lt;div&gt;k = 1&lt;/div&gt;" style="whiteSpace=wrap;html=1;rounded=0;" parent="1" vertex="1">
          <mxGeometry x="-777.5" y="1120" width="120" height="60" as="geometry" />
        </mxCell>
        <mxCell id="Ct-b7WR9rQ5AIG0DDqBD-69" style="edgeStyle=orthogonalEdgeStyle;rounded=0;orthogonalLoop=1;jettySize=auto;html=1;exitX=0;exitY=0.5;exitDx=0;exitDy=0;entryX=0;entryY=0.5;entryDx=0;entryDy=0;" parent="1" source="Ct-b7WR9rQ5AIG0DDqBD-66" target="Ct-b7WR9rQ5AIG0DDqBD-62" edge="1">
          <mxGeometry relative="1" as="geometry">
            <Array as="points">
              <mxPoint x="-790" y="1260" />
              <mxPoint x="-790" y="1040" />
            </Array>
          </mxGeometry>
        </mxCell>
        <mxCell id="Ct-b7WR9rQ5AIG0DDqBD-70" value="Evet" style="edgeLabel;html=1;align=center;verticalAlign=middle;resizable=0;points=[];" parent="Ct-b7WR9rQ5AIG0DDqBD-69" vertex="1" connectable="0">
          <mxGeometry x="-0.8819" relative="1" as="geometry">
            <mxPoint as="offset" />
          </mxGeometry>
        </mxCell>
        <mxCell id="Ct-b7WR9rQ5AIG0DDqBD-72" value="" style="edgeStyle=orthogonalEdgeStyle;rounded=0;orthogonalLoop=1;jettySize=auto;html=1;" parent="1" source="Ct-b7WR9rQ5AIG0DDqBD-66" target="Ct-b7WR9rQ5AIG0DDqBD-71" edge="1">
          <mxGeometry relative="1" as="geometry" />
        </mxCell>
        <mxCell id="Ct-b7WR9rQ5AIG0DDqBD-87" value="Hayır" style="edgeLabel;html=1;align=center;verticalAlign=middle;resizable=0;points=[];" parent="Ct-b7WR9rQ5AIG0DDqBD-72" vertex="1" connectable="0">
          <mxGeometry x="-0.2259" relative="1" as="geometry">
            <mxPoint as="offset" />
          </mxGeometry>
        </mxCell>
        <mxCell id="Ct-b7WR9rQ5AIG0DDqBD-66" value="&lt;div&gt;&lt;font style=&quot;font-size: 10px;&quot;&gt;satirDizi[i]&lt;/font&gt;&lt;/div&gt;&lt;div&gt;&lt;font style=&quot;font-size: 10px;&quot;&gt;=&lt;/font&gt;&lt;/div&gt;&lt;div&gt;&lt;font style=&quot;font-size: 10px;&quot;&gt;NULL&lt;br&gt;&lt;/font&gt;&lt;/div&gt;" style="rhombus;whiteSpace=wrap;html=1;rounded=0;" parent="1" vertex="1">
          <mxGeometry x="-757.5" y="1220" width="80" height="80" as="geometry" />
        </mxCell>
        <mxCell id="Ct-b7WR9rQ5AIG0DDqBD-74" value="" style="edgeStyle=orthogonalEdgeStyle;rounded=0;orthogonalLoop=1;jettySize=auto;html=1;" parent="1" source="Ct-b7WR9rQ5AIG0DDqBD-71" target="Ct-b7WR9rQ5AIG0DDqBD-73" edge="1">
          <mxGeometry relative="1" as="geometry" />
        </mxCell>
        <mxCell id="Ct-b7WR9rQ5AIG0DDqBD-71" value="j = i + 1" style="whiteSpace=wrap;html=1;rounded=0;" parent="1" vertex="1">
          <mxGeometry x="-777.5" y="1340" width="120" height="60" as="geometry" />
        </mxCell>
        <mxCell id="Ct-b7WR9rQ5AIG0DDqBD-83" style="edgeStyle=orthogonalEdgeStyle;rounded=0;orthogonalLoop=1;jettySize=auto;html=1;exitX=0.5;exitY=1;exitDx=0;exitDy=0;entryX=0.5;entryY=0;entryDx=0;entryDy=0;" parent="1" source="Ct-b7WR9rQ5AIG0DDqBD-73" target="Ct-b7WR9rQ5AIG0DDqBD-82" edge="1">
          <mxGeometry relative="1" as="geometry" />
        </mxCell>
        <mxCell id="Ct-b7WR9rQ5AIG0DDqBD-88" value="Evet" style="edgeLabel;html=1;align=center;verticalAlign=middle;resizable=0;points=[];" parent="Ct-b7WR9rQ5AIG0DDqBD-83" vertex="1" connectable="0">
          <mxGeometry x="-0.3983" y="-1" relative="1" as="geometry">
            <mxPoint x="1" y="-2" as="offset" />
          </mxGeometry>
        </mxCell>
        <mxCell id="Ct-b7WR9rQ5AIG0DDqBD-92" value="" style="edgeStyle=orthogonalEdgeStyle;rounded=0;orthogonalLoop=1;jettySize=auto;html=1;entryX=0;entryY=0.5;entryDx=0;entryDy=0;" parent="1" source="Ct-b7WR9rQ5AIG0DDqBD-73" target="Ct-b7WR9rQ5AIG0DDqBD-91" edge="1">
          <mxGeometry relative="1" as="geometry">
            <Array as="points">
              <mxPoint x="-840" y="1480" />
              <mxPoint x="-840" y="1980" />
            </Array>
          </mxGeometry>
        </mxCell>
        <mxCell id="Ct-b7WR9rQ5AIG0DDqBD-73" value="&lt;font style=&quot;font-size: 10px;&quot;&gt;j &amp;lt; satirSayac&lt;br&gt;&lt;/font&gt;" style="rhombus;whiteSpace=wrap;html=1;rounded=0;" parent="1" vertex="1">
          <mxGeometry x="-757.5" y="1440" width="80" height="80" as="geometry" />
        </mxCell>
        <mxCell id="Ct-b7WR9rQ5AIG0DDqBD-79" value="" style="edgeStyle=orthogonalEdgeStyle;rounded=0;orthogonalLoop=1;jettySize=auto;html=1;" parent="1" source="Ct-b7WR9rQ5AIG0DDqBD-75" target="Ct-b7WR9rQ5AIG0DDqBD-78" edge="1">
          <mxGeometry relative="1" as="geometry" />
        </mxCell>
        <mxCell id="Ct-b7WR9rQ5AIG0DDqBD-80" value="Evet" style="edgeLabel;html=1;align=center;verticalAlign=middle;resizable=0;points=[];" parent="Ct-b7WR9rQ5AIG0DDqBD-79" vertex="1" connectable="0">
          <mxGeometry x="-0.4704" y="-1" relative="1" as="geometry">
            <mxPoint x="1" as="offset" />
          </mxGeometry>
        </mxCell>
        <mxCell id="Ct-b7WR9rQ5AIG0DDqBD-89" style="edgeStyle=orthogonalEdgeStyle;rounded=0;orthogonalLoop=1;jettySize=auto;html=1;exitX=0;exitY=0.5;exitDx=0;exitDy=0;" parent="1" source="Ct-b7WR9rQ5AIG0DDqBD-75" edge="1">
          <mxGeometry relative="1" as="geometry">
            <mxPoint x="-640" y="1880" as="targetPoint" />
            <Array as="points">
              <mxPoint x="-811" y="1730" />
              <mxPoint x="-811" y="1930" />
              <mxPoint x="-639" y="1930" />
            </Array>
          </mxGeometry>
        </mxCell>
        <mxCell id="Ct-b7WR9rQ5AIG0DDqBD-90" value="Hayır" style="edgeLabel;html=1;align=center;verticalAlign=middle;resizable=0;points=[];" parent="Ct-b7WR9rQ5AIG0DDqBD-89" vertex="1" connectable="0">
          <mxGeometry x="-0.9427" y="1" relative="1" as="geometry">
            <mxPoint y="-11" as="offset" />
          </mxGeometry>
        </mxCell>
        <mxCell id="Ct-b7WR9rQ5AIG0DDqBD-75" value="&lt;div&gt;&lt;font style=&quot;font-size: 10px;&quot;&gt;satirDizi[j] != NULL&lt;/font&gt;&lt;/div&gt;&lt;div&gt;&lt;font style=&quot;font-size: 10px;&quot;&gt;&amp;amp;&amp;amp;&lt;/font&gt;&lt;/div&gt;&lt;div&gt;&lt;font style=&quot;font-size: 10px;&quot;&gt;strcmp(satirDizi[i], satirDizi[j]&lt;/font&gt;&lt;/div&gt;&lt;div&gt;&lt;font style=&quot;font-size: 10px;&quot;&gt;= 0&lt;/font&gt;&lt;/div&gt;" style="rhombus;whiteSpace=wrap;html=1;rounded=0;" parent="1" vertex="1">
          <mxGeometry x="-791.25" y="1660" width="147.5" height="140" as="geometry" />
        </mxCell>
        <mxCell id="Ct-b7WR9rQ5AIG0DDqBD-85" style="edgeStyle=orthogonalEdgeStyle;rounded=0;orthogonalLoop=1;jettySize=auto;html=1;exitX=1;exitY=0.5;exitDx=0;exitDy=0;entryX=1;entryY=0.5;entryDx=0;entryDy=0;" parent="1" source="Ct-b7WR9rQ5AIG0DDqBD-78" target="Ct-b7WR9rQ5AIG0DDqBD-73" edge="1">
          <mxGeometry relative="1" as="geometry" />
        </mxCell>
        <mxCell id="Ct-b7WR9rQ5AIG0DDqBD-78" value="&lt;div&gt;k &amp;lt;= k + 1&lt;/div&gt;&lt;div&gt;satirDizi[j] &amp;lt;= NULL&lt;br&gt;&lt;/div&gt;" style="whiteSpace=wrap;html=1;rounded=0;" parent="1" vertex="1">
          <mxGeometry x="-777.5" y="1850" width="120" height="60" as="geometry" />
        </mxCell>
        <mxCell id="Ct-b7WR9rQ5AIG0DDqBD-84" style="edgeStyle=orthogonalEdgeStyle;rounded=0;orthogonalLoop=1;jettySize=auto;html=1;exitX=0.5;exitY=1;exitDx=0;exitDy=0;entryX=0.5;entryY=0;entryDx=0;entryDy=0;" parent="1" source="Ct-b7WR9rQ5AIG0DDqBD-82" target="Ct-b7WR9rQ5AIG0DDqBD-75" edge="1">
          <mxGeometry relative="1" as="geometry" />
        </mxCell>
        <mxCell id="Ct-b7WR9rQ5AIG0DDqBD-82" value="j &amp;lt;= j + 1" style="rounded=0;whiteSpace=wrap;html=1;" parent="1" vertex="1">
          <mxGeometry x="-777.5" y="1560" width="120" height="60" as="geometry" />
        </mxCell>
        <mxCell id="Ct-b7WR9rQ5AIG0DDqBD-98" value="" style="edgeStyle=orthogonalEdgeStyle;rounded=0;orthogonalLoop=1;jettySize=auto;html=1;" parent="1" source="Ct-b7WR9rQ5AIG0DDqBD-91" target="Ct-b7WR9rQ5AIG0DDqBD-97" edge="1">
          <mxGeometry relative="1" as="geometry" />
        </mxCell>
        <mxCell id="Ct-b7WR9rQ5AIG0DDqBD-91" value="k &amp;gt; 1" style="rhombus;whiteSpace=wrap;html=1;rounded=0;" parent="1" vertex="1">
          <mxGeometry x="-760" y="1940" width="80" height="80" as="geometry" />
        </mxCell>
        <mxCell id="Ct-b7WR9rQ5AIG0DDqBD-100" value="" style="edgeStyle=orthogonalEdgeStyle;rounded=0;orthogonalLoop=1;jettySize=auto;html=1;" parent="1" source="Ct-b7WR9rQ5AIG0DDqBD-97" target="Ct-b7WR9rQ5AIG0DDqBD-99" edge="1">
          <mxGeometry relative="1" as="geometry" />
        </mxCell>
        <mxCell id="Ct-b7WR9rQ5AIG0DDqBD-97" value="&lt;div&gt;&lt;font style=&quot;font-size: 8px;&quot;&gt;fprintf ile&lt;/font&gt;&lt;/div&gt;&lt;div&gt;&lt;font style=&quot;font-size: 8px;&quot;&gt;&quot;Casus&#39;un TC Kimlik&lt;/font&gt;&lt;/div&gt;&lt;div&gt;&lt;font style=&quot;font-size: 8px;&quot;&gt;Numarası: satirDizi[i]&quot;&lt;/font&gt;&lt;/div&gt;&lt;div&gt;&lt;font style=&quot;font-size: 8px;&quot;&gt;yazdır&lt;br&gt;&lt;/font&gt;&lt;/div&gt;" style="shape=document;whiteSpace=wrap;html=1;boundedLbl=1;rounded=0;size=0.375;" parent="1" vertex="1">
          <mxGeometry x="-780" y="2050" width="120" height="80" as="geometry" />
        </mxCell>
        <mxCell id="Ct-b7WR9rQ5AIG0DDqBD-103" value="" style="edgeStyle=orthogonalEdgeStyle;rounded=0;orthogonalLoop=1;jettySize=auto;html=1;" parent="1" source="Ct-b7WR9rQ5AIG0DDqBD-99" target="Ct-b7WR9rQ5AIG0DDqBD-102" edge="1">
          <mxGeometry relative="1" as="geometry" />
        </mxCell>
        <mxCell id="Ct-b7WR9rQ5AIG0DDqBD-99" value="fclose(casusDosya) ile &quot;casus.txt&quot; dosyasını kapat" style="whiteSpace=wrap;html=1;rounded=0;" parent="1" vertex="1">
          <mxGeometry x="-780" y="2170" width="120" height="60" as="geometry" />
        </mxCell>
        <mxCell id="Ct-b7WR9rQ5AIG0DDqBD-101" value="&lt;div&gt;fclose(giris.txt) ile&lt;br&gt;&lt;/div&gt;&lt;div&gt;&quot;giris.txt&quot; dosyasını&lt;/div&gt;&lt;div&gt;kapat&lt;br&gt;&lt;/div&gt;" style="rounded=0;whiteSpace=wrap;html=1;" parent="1" vertex="1">
          <mxGeometry x="-780" y="580" width="120" height="60" as="geometry" />
        </mxCell>
        <mxCell id="Ct-b7WR9rQ5AIG0DDqBD-102" value="&quot;Olası casuslar casus.txt dosyasına yazıldı.&quot; yazdır" style="shape=document;whiteSpace=wrap;html=1;boundedLbl=1;rounded=0;" parent="1" vertex="1">
          <mxGeometry x="-780" y="2270" width="120" height="80" as="geometry" />
        </mxCell>
        <mxCell id="Ct-b7WR9rQ5AIG0DDqBD-104" value="BİTİR" style="ellipse;whiteSpace=wrap;html=1;" parent="1" vertex="1">
          <mxGeometry x="-780" y="2380" width="120" height="80" as="geometry" />
        </mxCell>
        <mxCell id="Ct-b7WR9rQ5AIG0DDqBD-105" value="" style="endArrow=classic;html=1;rounded=0;entryX=0.5;entryY=0;entryDx=0;entryDy=0;" parent="1" target="Ct-b7WR9rQ5AIG0DDqBD-104" edge="1">
          <mxGeometry width="50" height="50" relative="1" as="geometry">
            <mxPoint x="-720" y="2340" as="sourcePoint" />
            <mxPoint x="-670" y="2290" as="targetPoint" />
          </mxGeometry>
        </mxCell>
      </root>
    </mxGraphModel>
  </diagram>
</mxfile>
